<?xml version="1.0" standalone="no"?>
<!DOCTYPE svg PUBLIC "-//W3C//DTD SVG 20010904//EN"
 "http://www.w3.org/TR/2001/REC-SVG-20010904/DTD/svg10.dtd">
<svg version="1.0" xmlns="http://www.w3.org/2000/svg"
 width="1414.000000pt" height="1414.000000pt" viewBox="0 0 1414.000000 1414.000000"
 preserveAspectRatio="xMidYMid meet">
<metadata>
Created by potrace 1.11, written by Peter Selinger 2001-2013
</metadata>
<g transform="translate(0.000000,1414.000000) scale(0.100000,-0.100000)"
fill="#000000" stroke="none">
<path d="M7312 12105 c-71 -143 -155 -307 -186 -365 -59 -108 -126 -244 -171
-346 -27 -61 -27 -67 -5 -194 5 -30 18 -111 30 -180 11 -69 22 -137 25 -153
15 -86 25 -147 29 -182 3 -22 15 -98 26 -170 12 -71 23 -143 25 -160 3 -16 9
-57 14 -90 14 -89 30 -195 35 -235 7 -54 18 -133 21 -150 2 -9 7 -43 11 -75 4
-33 9 -62 9 -65 1 -3 5 -36 9 -75 5 -38 10 -79 12 -90 5 -26 51 -404 59 -475
3 -30 7 -71 10 -90 3 -19 7 -60 10 -90 3 -30 8 -71 10 -90 2 -19 9 -87 15
-150 6 -63 13 -137 16 -165 5 -53 9 -102 19 -230 3 -44 8 -102 11 -130 2 -27
6 -85 9 -128 2 -44 7 -118 10 -165 12 -178 21 -397 29 -698 l3 -112 -26 8
c-14 5 -51 16 -81 25 -91 28 -229 84 -337 137 -375 183 -585 439 -603 738 -4
63 -92 -198 -116 -345 -13 -72 -11 -284 1 -355 81 -447 428 -744 1085 -928
l65 -18 -1 -40 c-2 -59 -15 -294 -19 -334 -2 -19 -6 -73 -9 -120 -6 -80 -10
-122 -21 -215 -3 -22 -7 -62 -10 -90 -8 -70 -25 -205 -30 -235 -2 -14 -6 -45
-10 -70 -3 -25 -8 -56 -10 -70 -3 -14 -7 -41 -10 -60 -3 -19 -7 -46 -10 -60
-3 -14 -7 -41 -10 -60 -3 -19 -8 -42 -10 -50 -2 -8 -6 -33 -10 -55 -5 -36 -28
-144 -56 -265 -6 -25 -13 -55 -15 -66 -9 -48 -68 -267 -106 -394 -66 -224
-137 -427 -211 -605 -23 -55 -42 -102 -43 -105 0 -3 -13 -32 -28 -65 -44 -95
-59 -133 -44 -114 7 9 38 44 68 79 30 35 62 72 70 84 8 12 19 26 25 32 47 49
249 337 324 465 108 181 218 393 281 539 18 41 38 89 46 105 45 100 137 362
202 575 35 115 90 341 121 495 30 147 33 164 45 235 14 81 17 97 22 130 2 19
7 46 9 60 2 14 7 52 11 84 3 33 8 67 9 75 2 9 4 19 4 22 1 3 106 6 234 5 365
-2 599 20 877 79 14 3 43 10 65 14 100 21 298 86 409 133 249 106 397 216 504
377 69 103 207 372 226 441 1 3 12 34 24 70 41 123 55 211 56 340 1 69 -2 150
-6 181 -17 128 -94 316 -194 471 -43 67 -141 206 -154 218 -3 3 -25 30 -50 60
-47 58 -220 261 -230 270 -6 6 -184 210 -217 250 -12 14 -44 52 -72 85 -27 33
-48 61 -47 63 2 2 62 4 132 4 71 1 146 4 167 7 l38 6 -123 86 c-307 215 -508
405 -666 625 -50 71 -96 134 -100 139 -4 6 -28 39 -52 75 -24 36 -58 84 -76
108 l-33 43 -14 -23 c-16 -25 -83 -143 -130 -228 -16 -30 -60 -107 -97 -170
-37 -63 -86 -150 -109 -193 l-43 -79 38 -56 c95 -145 300 -402 528 -661 195
-221 191 -216 283 -318 37 -42 75 -84 83 -93 8 -9 47 -53 86 -96 119 -132 246
-283 332 -394 45 -58 87 -111 93 -118 29 -34 149 -235 177 -294 99 -210 92
-375 -18 -485 -95 -94 -354 -190 -610 -227 -139 -19 -162 -22 -300 -33 -116
-10 -576 -10 -681 0 -136 12 -214 20 -229 23 -8 1 -22 3 -31 3 -14 1 -16 11
-12 64 11 175 4 881 -12 1122 -1 22 -5 96 -9 165 -10 164 -20 303 -31 420 -2
19 -6 69 -9 110 -6 70 -11 122 -21 210 -2 19 -7 69 -11 110 -3 41 -8 83 -10
93 -2 10 -6 46 -9 80 -3 34 -8 73 -10 87 -2 14 -7 50 -10 80 -5 52 -10 92 -20
170 -6 42 -15 114 -19 155 -5 41 -16 125 -21 155 -2 14 -7 43 -9 65 -8 62 -46
326 -51 356 -3 15 -7 44 -10 66 -5 37 -37 257 -51 340 l-7 43 135 -68 c142
-71 152 -76 410 -187 l167 -72 -66 76 c-223 255 -417 573 -605 991 -62 137
-177 444 -238 635 -17 55 -38 116 -45 135 l-13 35 -130 -260z"/>
<path d="M6610 10048 c-252 -478 -630 -1044 -1067 -1598 -47 -60 -458 -566
-462 -570 -3 -3 -24 -27 -46 -55 -21 -27 -42 -52 -45 -55 -5 -5 -85 -102 -107
-130 -6 -8 -36 -44 -65 -80 -301 -361 -606 -781 -768 -1055 -70 -118 -202
-377 -225 -440 -10 -27 -22 -54 -26 -60 -18 -25 -130 -362 -144 -436 -2 -9
-12 -59 -24 -110 -24 -112 -30 -157 -51 -354 -9 -90 -7 -461 4 -565 39 -372
102 -643 217 -930 139 -347 326 -636 578 -889 138 -139 173 -171 271 -246 36
-28 67 -52 70 -55 3 -3 50 -36 105 -72 133 -89 330 -195 468 -253 62 -26 126
-53 142 -60 63 -27 321 -106 395 -121 14 -3 43 -10 65 -16 50 -13 46 -12 196
-37 222 -36 347 -46 594 -46 180 0 397 10 428 20 7 2 37 6 67 10 66 7 103 12
195 30 39 8 85 17 104 20 94 16 420 113 506 150 17 7 66 27 110 45 85 34 360
173 385 194 8 7 38 25 65 41 87 49 306 219 413 321 390 369 625 819 717 1369
4 22 8 132 10 245 3 185 -7 327 -29 416 -12 48 -17 94 -9 94 4 0 35 -9 68 -19
84 -26 318 -78 390 -86 33 -4 63 -9 66 -11 3 -2 39 -6 80 -10 l74 -6 -120 89
c-278 207 -516 426 -735 678 -280 321 -433 491 -573 639 l-48 51 -25 -30 c-14
-16 -50 -75 -81 -130 -53 -94 -156 -276 -178 -313 -6 -9 -36 -60 -67 -113
l-57 -96 78 -79 c281 -287 559 -830 607 -1187 3 -23 10 -62 14 -87 5 -25 7
-117 6 -205 -7 -386 -132 -652 -396 -845 -30 -22 -59 -44 -65 -48 -43 -33
-236 -137 -330 -177 -64 -27 -226 -86 -275 -100 -180 -52 -302 -82 -435 -105
-33 -5 -71 -12 -85 -15 -14 -3 -56 -8 -95 -11 -38 -3 -73 -8 -76 -10 -12 -7
-274 -18 -414 -18 -133 0 -318 9 -395 19 -19 3 -55 7 -80 10 -25 3 -70 9 -100
15 -30 5 -70 12 -88 15 -57 9 -174 35 -181 40 -4 2 -19 6 -33 9 -127 23 -523
170 -608 226 -8 5 -29 16 -45 23 -92 42 -306 188 -430 292 -124 105 -286 279
-358 385 -125 182 -199 314 -263 465 -43 105 -110 294 -118 339 -2 12 -12 50
-21 86 -9 36 -19 76 -21 90 -3 14 -9 48 -14 75 -41 213 -48 315 -45 590 1 132
5 249 8 260 3 11 8 49 12 85 22 208 133 608 229 825 8 17 28 64 46 105 51 117
163 336 235 458 6 10 32 56 60 102 27 47 52 87 56 90 3 3 12 16 19 30 15 29
254 394 270 413 6 6 50 68 98 137 48 69 100 143 116 165 17 22 43 58 58 80 89
124 124 170 130 173 5 2 8 10 8 18 0 8 4 14 8 14 5 0 14 10 19 23 6 12 18 31
27 42 88 108 474 675 591 870 202 334 353 639 450 909 18 50 36 99 40 109 17
42 -5 10 -45 -65z"/>
<path d="M9135 8348 c-99 -54 -263 -359 -370 -686 -9 -29 -19 -51 -22 -48 -2
2 -25 64 -49 138 -83 249 -194 438 -278 473 -53 22 -131 0 -189 -54 -86 -79
-83 -188 5 -259 62 -50 83 -51 125 -8 46 48 82 49 117 3 66 -86 195 -427 232
-609 9 -46 18 -85 20 -87 8 -9 49 107 110 309 109 361 174 516 244 585 30 29
41 34 66 29 34 -6 73 -56 76 -96 3 -35 20 -22 49 39 25 52 30 163 9 204 -36
70 -93 96 -145 67z"/>
<path d="M5590 7668 c-23 -29 -47 -60 -53 -68 -59 -74 -151 -242 -200 -365
-131 -327 -133 -623 -5 -742 60 -56 172 -72 244 -35 112 57 196 226 207 420 3
39 2 72 -2 72 -4 0 -15 -16 -24 -36 -80 -167 -169 -229 -264 -183 -121 58
-122 251 -2 612 27 81 58 167 68 190 34 74 79 187 75 187 -2 0 -22 -24 -44
-52z"/>
<path d="M5638 5965 c-29 -46 -116 -185 -193 -307 -77 -122 -159 -252 -181
-288 l-41 -66 36 -40 c20 -23 65 -74 101 -114 36 -40 70 -78 75 -84 6 -6 44
-49 84 -96 41 -47 80 -89 86 -95 5 -5 34 -38 64 -72 29 -34 71 -81 93 -105 38
-42 40 -42 54 -23 14 18 76 115 371 572 80 125 82 128 64 148 -10 11 -30 34
-44 50 -14 17 -35 41 -47 55 -12 14 -38 45 -58 69 -21 24 -46 53 -57 65 -11
12 -40 47 -65 76 -25 30 -63 75 -85 100 -22 25 -62 72 -90 104 -27 33 -55 64
-60 70 -6 6 -20 24 -32 39 l-21 28 -54 -86z"/>
<path d="M6419 4532 c-111 -14 -299 -336 -454 -780 -18 -52 -35 -90 -38 -85
-2 4 -28 78 -56 163 -91 269 -200 466 -291 526 -57 38 -121 36 -192 -4 -127
-71 -166 -201 -91 -301 28 -36 107 -91 132 -91 8 0 34 20 56 45 36 39 45 44
75 40 40 -5 55 -22 109 -125 84 -161 208 -526 227 -667 4 -29 10 -53 14 -53
14 0 56 118 124 345 132 442 210 629 295 702 61 53 139 6 157 -95 4 -25 12
-24 31 5 30 42 45 91 48 161 5 76 -14 135 -57 179 -33 34 -49 40 -89 35z"/>
<path d="M8277 4487 c-92 -112 -203 -301 -259 -440 -19 -48 -71 -217 -84 -276
-13 -58 -13 -267 0 -316 37 -140 112 -205 238 -205 110 0 202 88 256 246 28
81 32 103 38 197 5 75 4 80 -10 62 -9 -11 -16 -24 -16 -28 0 -4 -16 -34 -36
-65 -83 -131 -138 -158 -236 -115 -29 12 -44 28 -62 66 -57 120 -5 380 154
775 32 78 56 142 55 142 -1 0 -19 -20 -38 -43z"/>
</g>
</svg>
